<svg width="650" height="650" viewBox="0 0 650 650" fill="none" xmlns="http://www.w3.org/2000/svg">
<circle cx="325" cy="325" r="325" fill="#010111"/>
<path d="M326.63 206.99H379.87L322.87 443.5H269.97L326.63 206.99Z" fill="white"/>
<path d="M603.07 206.99L592.15 251.7H522.87L476.79 443.5H423.55L469.63 251.7H400.35L411.27 206.99H603.07Z" fill="white"/>
<path d="M219.06 316.95C245.22 306.23 262.91 285.8 262.91 262.34C262.91 231.29 231.91 205.54 191.32 200.63L197.59 176.96C198.343 174.11 197.934 171.078 196.453 168.53C194.972 165.982 192.539 164.126 189.69 163.37V163.37C186.84 162.617 183.808 163.026 181.26 164.507C178.712 165.988 176.856 168.421 176.1 171.27L168.47 200.1C166.76 200.22 165.07 200.4 163.39 200.6C160.56 200.8 157.39 201.04 154.09 201.33L160.54 176.96C160.914 175.548 161.006 174.077 160.811 172.629C160.616 171.182 160.137 169.787 159.403 168.525C158.668 167.263 157.692 166.158 156.53 165.273C155.367 164.389 154.042 163.742 152.63 163.37V163.37C149.782 162.617 146.751 163.026 144.204 164.508C141.657 165.989 139.803 168.422 139.05 171.27L130.4 203.93C118.1 205.65 106.48 208 100.03 211.16L46 438.86C46 438.86 52.37 441.36 67 443.66L59.22 472.86C58.847 474.271 58.7557 475.742 58.9511 477.188C59.1465 478.634 59.6249 480.028 60.359 481.29C61.093 482.551 62.0683 483.656 63.2292 484.54C64.3902 485.425 65.7139 486.072 67.125 486.445C68.5361 486.818 70.0068 486.909 71.4531 486.714C72.8995 486.518 74.2932 486.04 75.5547 485.306C76.8162 484.572 77.9207 483.597 78.8053 482.436C79.6898 481.275 80.3371 479.951 80.71 478.54L89.26 446.22C93.52 446.553 98.1333 446.827 103.1 447.04L96.28 472.86C95.907 474.271 95.8157 475.742 96.0111 477.188C96.2065 478.634 96.6849 480.028 97.419 481.29C98.153 482.551 99.1283 483.656 100.289 484.54C101.45 485.425 102.774 486.072 104.185 486.445C105.596 486.818 107.067 486.909 108.513 486.714C109.959 486.518 111.353 486.04 112.615 485.306C113.876 484.572 114.981 483.597 115.865 482.436C116.75 481.275 117.397 479.951 117.77 478.54L125.99 447.46C135.35 447.46 145.61 447.16 156.89 446.57C206.81 446.57 243.38 413.72 247.28 373.57C249.75 348.22 238.06 329.19 219.06 316.95ZM162.94 401.44C162.94 401.44 143.45 406.84 107.56 402.21L122.03 340.45H158.89C158.89 340.45 193.44 340.65 192.89 368.24C192.34 395.83 162.94 401.44 162.94 401.44V401.44ZM183.94 298C183.94 298 179.94 301.47 131.64 300.7L144.22 248.98C144.22 248.98 199.99 239.33 204.81 264.81C209.63 290.29 183.98 298 183.98 298H183.94Z" fill="#F7931A"/>
</svg>
