<svg width="1920" height="1080" viewBox="0 0 1920 1080" fill="none" xmlns="http://www.w3.org/2000/svg">
<g clip-path="url(#clip0)">
<path d="M1920 0H0V1080H1920V0Z" fill="#002233"/>
<path d="M0 802L45.7 781.8C91.3 761.7 182.7 721.3 274.2 744.5C365.7 767.7 457.3 854.3 548.8 858.7C640.3 863 731.7 785 823 761.5C914.3 738 1005.7 769 1097 775.7C1188.3 782.3 1279.7 764.7 1371.2 787C1462.7 809.3 1554.3 871.7 1645.8 887.2C1737.3 902.7 1828.7 871.3 1874.3 855.7L1920 840V1081H1874.3C1828.7 1081 1737.3 1081 1645.8 1081C1554.3 1081 1462.7 1081 1371.2 1081C1279.7 1081 1188.3 1081 1097 1081C1005.7 1081 914.3 1081 823 1081C731.7 1081 640.3 1081 548.8 1081C457.3 1081 365.7 1081 274.2 1081C182.7 1081 91.3 1081 45.7 1081H0V802Z" fill="#FF914D"/>
</g>
<defs>
<clipPath id="clip0">
<rect width="1920" height="1080" fill="white"/>
</clipPath>
</defs>
</svg>
