<svg width="1638" height="3778" viewBox="0 0 1638 3778" fill="none" xmlns="http://www.w3.org/2000/svg">
<circle cx="46" cy="1913" r="16" fill="#FF914D" fill-opacity="0.5"/>
<circle cx="249" cy="2225" r="12" stroke="#FF914D" stroke-opacity="0.5" stroke-width="8"/>
<circle cx="1586" cy="2343" r="16" fill="#FF914D" fill-opacity="0.5"/>
<circle cx="701" cy="3762" r="12" stroke="#FF914D" stroke-opacity="0.5" stroke-width="8"/>
<circle cx="1622" cy="3182" r="12" stroke="#FF914D" stroke-opacity="0.5" stroke-width="8"/>
<circle cx="1466" cy="3701" r="16" fill="#FF914D" fill-opacity="0.5"/>
<circle cx="174" cy="3423" r="16" fill="#FF914D" fill-opacity="0.5"/>
<circle cx="679" cy="16" r="12" stroke="#FF914D" stroke-opacity="0.5" stroke-width="8"/>
<circle cx="1415" cy="612" r="12" stroke="#FF914D" stroke-opacity="0.5" stroke-width="8"/>
<circle cx="16" cy="786" r="16" fill="#FF914D" fill-opacity="0.5"/>
<circle cx="1045" cy="96" r="16" fill="#FF914D" fill-opacity="0.5"/>
<path d="M636 740.5L707.5 503.75M636 740.5L294 886L28.5 789M636 740.5L868 951.75M1340 1823.5L1100 1163L868 951.75M1340 1823.5L1245.5 2188L823 2283.75M1340 1823.5L1513.5 1948L1582.5 2331M1460 3691L1114 3292L891.125 3255M1035.5 101L779 267L707.5 503.75M707.5 503.75L562 368.5L675 29M868 951.75L1183 911L1407 622.5M668.25 3218L222.5 3144L146.5 2887.5L400.5 2379.5L823 2283.75M668.25 3218L596.5 3462.5M668.25 3218L891.125 3255M596.5 3462.5L696 3749M596.5 3462.5L361 3485.5L185.5 3425.5M891.125 3255L1174 3100L1608 3178.5M823 2283.75L624.5 2089M624.5 2089L262 2218M624.5 2089L481 1987L58.5 1915.5" stroke="#FF914D" stroke-opacity="0.5" stroke-width="8"/>
</svg>
